<svg width="16" height="16" viewBox="0 0 16 16" xmlns="http://www.w3.org/2000/svg">
  <!-- Spring leaf icon with endpoint indicators -->
  <g fill="#6DB33F">
    <!-- Spring leaf -->
    <path d="M8.5 1.5c3.5 0 6.5 2.8 6.5 6.5 0 1.8-0.7 3.4-1.8 4.6l-1.4-1.4c0.7-0.8 1.2-1.8 1.2-2.9 0-2.5-2-4.5-4.5-4.5S4 5.8 4 8.3c0 1.1 0.4 2.1 1.2 2.9L3.8 12.6C2.7 11.4 2 9.8 2 8c0-3.7 3-6.5 6.5-6.5z"/>
    
    <!-- Endpoint dots -->
    <circle cx="5" cy="6" r="1" fill="#4A90E2"/>
    <circle cx="11" cy="6" r="1" fill="#4A90E2"/>
    <circle cx="8" cy="11" r="1" fill="#4A90E2"/>
    
    <!-- Connection lines -->
    <path stroke="#4A90E2" stroke-width="1" fill="none" d="M5 6 L8 8 L11 6 M8 8 L8 11"/>
  </g>
</svg>